<svg width="37" height="30" viewBox="0 0 37 30" fill="none" xmlns="http://www.w3.org/2000/svg">
<path d="M35.7667 11.6413H34.1017L29.8189 1.53601C29.6251 1.0788 29.309 0.690361 28.909 0.417736C28.5089 0.145111 28.0421 5.98912e-06 27.565 0H9.435C8.95792 5.98912e-06 8.49107 0.145111 8.09102 0.417736C7.69098 0.690361 7.3749 1.0788 7.18108 1.53601L2.89833 11.6413H1.23333C0.906233 11.6413 0.59253 11.7776 0.361235 12.0202C0.12994 12.2627 0 12.5917 0 12.9348C0 13.2778 0.12994 13.6068 0.361235 13.8494C0.59253 14.092 0.906233 14.2283 1.23333 14.2283H2.46667V27.163C2.46667 27.8491 2.72655 28.5071 3.18914 28.9923C3.65173 29.4774 4.27913 29.75 4.93333 29.75H8.63333C9.28753 29.75 9.91494 29.4774 10.3775 28.9923C10.8401 28.5071 11.1 27.8491 11.1 27.163V25.8696H25.9V27.163C25.9 27.8491 26.1599 28.5071 26.6225 28.9923C27.0851 29.4774 27.7125 29.75 28.3667 29.75H32.0667C32.7209 29.75 33.3483 29.4774 33.8109 28.9923C34.2735 28.5071 34.5333 27.8491 34.5333 27.163V14.2283H35.7667C36.0938 14.2283 36.4075 14.092 36.6388 13.8494C36.8701 13.6068 37 13.2778 37 12.9348C37 12.5917 36.8701 12.2627 36.6388 12.0202C36.4075 11.7776 36.0938 11.6413 35.7667 11.6413ZM11.1 19.4022H7.4C7.0729 19.4022 6.7592 19.2659 6.5279 19.0233C6.29661 18.7808 6.16667 18.4517 6.16667 18.1087C6.16667 17.7656 6.29661 17.4366 6.5279 17.1941C6.7592 16.9515 7.0729 16.8152 7.4 16.8152H11.1C11.4271 16.8152 11.7408 16.9515 11.9721 17.1941C12.2034 17.4366 12.3333 17.7656 12.3333 18.1087C12.3333 18.4517 12.2034 18.7808 11.9721 19.0233C11.7408 19.2659 11.4271 19.4022 11.1 19.4022ZM29.6 19.4022H25.9C25.5729 19.4022 25.2592 19.2659 25.0279 19.0233C24.7966 18.7808 24.6667 18.4517 24.6667 18.1087C24.6667 17.7656 24.7966 17.4366 25.0279 17.1941C25.2592 16.9515 25.5729 16.8152 25.9 16.8152H29.6C29.9271 16.8152 30.2408 16.9515 30.4721 17.1941C30.7034 17.4366 30.8333 17.7656 30.8333 18.1087C30.8333 18.4517 30.7034 18.7808 30.4721 19.0233C30.2408 19.2659 29.9271 19.4022 29.6 19.4022ZM5.59779 11.6413L9.435 2.58696H27.565L31.4022 11.6413H5.59779Z" fill="#DB0019"/>
</svg>
